M48
INCH,TZ
T1C0.020
T2C0.031
T3C0.032
T4C0.039
T5C0.040
T6C0.045
T7C0.052
T8C0.118
%
G90
G05
T1
X57325Y-28988
T2
X51800Y-23413
X53700Y-22563
X53700Y-23350
X57300Y-21963
X57300Y-23931
X60450Y-23397
X62859Y-43413
X62859Y-44397
X65500Y-47247
X65500Y-49497
X67300Y-46363
X67300Y-47150
X67300Y-48675
X67300Y-49463
T3
X51800Y-22428
X60450Y-22413
X65500Y-46263
X65500Y-48513
T4
X45792Y-42218
X45792Y-43218
X45792Y-44218
X45800Y-28720
X45800Y-29720
X45800Y-30720
X45800Y-33214
X45800Y-34214
X45800Y-35214
X45800Y-37713
X45800Y-38713
X45800Y-39713
X47200Y-26760
X47200Y-32665
X47200Y-35760
X47200Y-41665
X48300Y-31260
X48300Y-37165
X48300Y-40260
X48300Y-46165
T5
X52119Y-26984
X52119Y-27984
X52119Y-28984
X52119Y-29984
X52119Y-30984
X53600Y-49813
X54127Y-27008
X54127Y-28008
X54127Y-29008
X54127Y-30008
X54127Y-31008
X54127Y-32008
X54127Y-33008
X54127Y-34008
X54127Y-35008
X54127Y-36008
X54127Y-37008
X54127Y-38008
X54127Y-39008
X54127Y-40008
X54127Y-41008
X54350Y-49813
X55100Y-49813
X60127Y-27008
X60127Y-28008
X60127Y-29008
X60127Y-30008
X60127Y-31008
X60127Y-32008
X60127Y-33008
X60127Y-34008
X60127Y-35008
X60127Y-36008
X60127Y-37008
X60127Y-38008
X60127Y-39008
X60127Y-40008
X60127Y-41008
X62135Y-27008
X62135Y-28008
X62135Y-29008
X62135Y-30008
X62135Y-31008
X62135Y-32008
X62135Y-33008
X62135Y-34008
X62135Y-35008
X62135Y-36008
X62135Y-37008
X62135Y-38008
X62135Y-39008
X62135Y-40008
X63100Y-47213
X66729Y-43323
X66729Y-44323
X67729Y-43323
X67729Y-44323
X68729Y-43323
X68729Y-44323
X69729Y-43323
X69729Y-44323
T6
X69950Y-46913
X69950Y-47913
X69950Y-48913
T7
X50008Y-47703
X51976Y-47703
X53945Y-47703
X55913Y-47703
X57882Y-47703
X59850Y-47703
T8
X46950Y-22813
X48131Y-24663
X49312Y-22813
T0
M30
